Coordinates
version=1
nRows=17
nColumns=24
inDegrees=yes

Units are S.I. units (second, meters, Newtons, ...)
Angles are in degrees.

endheader
time	pelvis_tilt	pelvis_list	pelvis_rotation	pelvis_tx	pelvis_ty	pelvis_tz	hip_flexion_r	hip_adduction_r	hip_rotation_r	knee_angle_r	ankle_angle_r	subtalar_angle_r	mtp_angle_r	hip_flexion_l	hip_adduction_l	hip_rotation_l	knee_angle_l	ankle_angle_l	subtalar_angle_l	mtp_angle_l	lumbar_extension	lumbar_bending	lumbar_rotation
      0.77100000	      0.30450810	     -5.77525112	      7.81765957	     -0.44481593	      0.90908963	      0.31347702	     11.91586266	     11.70212949	     -5.48907446	    -20.09546564	      8.54957156	     -3.20582348	      3.26099426	     16.02380968	    -10.15179377	     -0.78908882	    -73.15513756	     -1.06092413	     -8.47584318	      2.10632227	     -5.88132407	      7.17354079	     -0.09687606
      0.77516667	      0.23631331	     -5.60661240	      7.66297124	     -0.43954875	      0.91020128	      0.31383072	     11.33948831	     11.61736504	     -5.25039564	    -19.62322497	      8.58380997	     -3.09149868	      3.25506282	     16.70756622	     -9.81771090	     -0.94173967	    -72.78520855	     -0.55911507	     -8.53786230	      2.10258888	     -5.86660912	      6.98130826	      0.07157281
      0.77933333	      0.20023294	     -5.44232750	      7.49523097	     -0.43425808	      0.91133937	      0.31422929	     10.71008636	     11.54560818	     -4.99073338	    -19.11375601	      8.64711791	     -2.99934450	      3.24376086	     17.33100211	     -9.51466343	     -1.12827806	    -72.33862580	     -0.10509320	     -8.51340021	      2.09093541	     -5.88676141	      6.77548325	      0.44555221
      0.78350000	      0.14306578	     -5.26952281	      7.30967135	     -0.42899932	      0.91242563	      0.31461092	     10.11380266	     11.45108717	     -4.74409726	    -18.62212774	      8.65831465	     -2.86324929	      3.23790649	     17.95366113	     -9.19301913	     -1.32619259	    -71.82099147	      0.35416352	     -8.53878269	      2.09008700	     -5.88884230	      6.57928073	      0.63057127
      0.78766667	      0.13431382	     -5.10671230	      7.12157475	     -0.42371027	      0.91354980	      0.31502567	      9.44198782	     11.37544531	     -4.49216768	    -18.08121878	      8.70759027	     -2.75066765	      3.22970726	     18.50285823	     -8.91048204	     -1.54671142	    -71.23291342	      0.76444821	     -8.49753722	      2.08608288	     -5.93838768	      6.37773542	      1.00164026
      0.79183333	      0.11491468	     -4.93827841	      6.91909146	     -0.41844276	      0.91463065	      0.31543977	      8.78649231	     11.28490180	     -4.24637838	    -17.54717003	      8.72380980	     -2.61320048	      3.22312395	     19.04060452	     -8.61975920	     -1.77984011	    -70.57571750	      1.17114095	     -8.47081151	      2.08553702	     -5.98154827	      6.17789508	      1.27850849
      0.79600000	      0.11044581	     -4.77381928	      6.70610685	     -0.41318246	      0.91569616	      0.31586020	      8.11070446	     11.19551371	     -4.00493127	    -17.00075227	      8.73411999	     -2.46229221	      3.21787900	     19.54122649	     -8.34420459	     -2.02851310	    -69.85366149	      1.55795815	     -8.43159520	      2.08784883	     -6.04045070	      5.98582686	      1.56426150
      0.80016667	      0.11501203	     -4.61232867	      6.48531834	     -0.40793250	      0.91673171	      0.31629070	      7.42176928	     11.10524543	     -3.76745511	    -16.44218992	      8.73544504	     -2.30627960	      3.21453189	     20.01352614	     -8.08074343	     -2.29042779	    -69.06925892	      1.92509849	     -8.38565596	      2.09252145	     -6.11260217	      5.79599393	      1.84998615
      0.80433333	      0.10311764	     -4.44776366	      6.24276772	     -0.40269528	      0.91770296	      0.31673421	      6.75898387	     11.00158798	     -3.54193981	    -15.89872586	      8.70214532	     -2.12109238	      3.21318293	     20.48039539	     -7.82255888	     -2.58127205	    -68.22287731	      2.28891549	     -8.34685499	      2.09855853	     -6.16219377	      5.58940316	      2.03883640
      0.80850000	      0.14584557	     -4.28828885	      6.00417011	     -0.39746178	      0.91871374	      0.31715513	      6.02174986	     10.90558415	     -3.30742023	    -15.32178359	      8.70198028	     -1.94731740	      3.21370881	     20.86550427	     -7.57397068	     -2.86222949	    -67.30616231	      2.61409686	     -8.27446609	      2.10538966	     -6.28324726	      5.43192400	      2.33802260
      0.81266667	      0.19812009	     -4.15479943	      5.77503673	     -0.39222115	      0.91966283	      0.31759689	      5.25992989	     10.83647550	     -3.08728185	    -14.70271781	      8.70260597	     -1.78544899	      3.21633686	     21.23840022	     -7.37074785	     -3.14688617	    -66.35432564	      2.92012838	     -8.20045038	      2.11340740	     -6.40832335	      5.26430381	      2.69327556
      0.81683333	      0.24302038	     -4.01395754	      5.52296176	     -0.38700884	      0.92056035	      0.31803907	      4.51747425	     10.74920752	     -2.87229995	    -14.10540048	      8.67402767	     -1.60274868	      3.22065786	     21.59266950	     -7.16140904	     -3.45179125	    -65.33638162	      3.21295679	     -8.13183015	      2.12205335	     -6.52667099	      5.10176581	      2.97981198
      0.82100000	      0.29539365	     -3.87921834	      5.26687992	     -0.38180603	      0.92140635	      0.31847738	      3.76581925	     10.66199258	     -2.66926194	    -13.50151883	      8.64434491	     -1.40489222	      3.22701809	     21.92283287	     -6.96398333	     -3.76219675	    -64.26644264	      3.48741545	     -8.05867496	      2.13032884	     -6.65159436	      4.94380004	      3.25287050
      0.82516667	      0.33708898	     -3.74060201	      4.99146205	     -0.37662304	      0.92218644	      0.31892988	      3.03612954	     10.56078456	     -2.47407834	    -12.91641448	      8.58219813	     -1.17927025	      3.23202585	     22.24099904	     -6.77004846	     -4.09429713	    -63.13648070	      3.74522687	     -7.98849245	      2.13690009	     -6.77041499	      4.77392274	      3.46308690
      0.82933333	      0.42083853	     -3.61999950	      4.73362968	     -0.37143043	      0.92295850	      0.31934934	      2.24374308	     10.47742987	     -2.29415579	    -12.29138576	      8.55524850	     -0.96437165	      3.24097212	     22.50211873	     -6.59560133	     -4.40449124	    -61.95888089	      3.97564515	     -7.90952345	      2.14379316	     -6.93007960	      4.65046255	      3.74774557
      0.83350000	      0.49002765	     -3.50821707	      4.46779590	     -0.36625703	      0.92363124	      0.31978342	      1.47359859	     10.39623015	     -2.11860604	    -11.67523637	      8.51343347	     -0.73974959	      3.25188855	     22.76782648	     -6.43589967	     -4.72204263	    -60.74024672	      4.19130170	     -7.82661097	      2.15041472	     -7.07398056	      4.51809329	      4.01580724
      0.83766667	      0.57523308	     -3.41565573	      4.21443771	     -0.36108958	      0.92424780	      0.32019732	      0.67424503	     10.33136260	     -1.95447973	    -11.02655514	      8.49504703	     -0.51349395	      3.27089252	     23.00936720	     -6.29742402	     -5.02120363	    -59.48458062	      4.39078987	     -7.73689563	      2.15928394	     -7.24041594	      4.40535840	      4.33605561
